# xmcd CD database file
#
# Track frame offsets:
#	150
#	22126
#	40618
#	53449
#	65430
#	86622
#	105504
#	122950
#	141071
#	153261
#	170865
#	196372
#	214363
#
# Disc length: 3163 seconds
#
# Revision: 3
# Processed by: cddbd v1.5.2PL0 Copyright (c) Steve Scherf et al.
# Submitted via: CDex 1.70beta2
#
DISCID=b50c590d
DTITLE=Joe Cocker - Unchain My Heart
DYEAR=1900
DGENRE=Rock
TTITLE0=With A Little Help From My Friends
TTITLE1=Feeling Alright
TTITLE2=Delta Lady
TTITLE3=She Came In Through The Bathroom Window
TTITLE4=Darling Be Home Soon
TTITLE5=The Letter
TTITLE6=Cry Me A River
TTITLE7=Midnight Rider
TTITLE8=You Are So Beautiful
TTITLE9=Up Where We Belong (with Jennifer Warnes)
TTITLE10=Shelter Me
TTITLE11=When The Night Comes
TTITLE12=Unchain My Heart
EXTD=
EXTT0=
EXTT1=
EXTT2=
EXTT3=
EXTT4=
EXTT5=
EXTT6=
EXTT7=
EXTT8=
EXTT9=
EXTT10=
EXTT11=
EXTT12=
PLAYORDER=
